#!OML:ASF H:\Dans Jumps\Project 1\Capture day 1\Session 1\subject.ASF
:FULLY-SPECIFIED
:DEGREES
440
root 0.582609 17.5117 4.43072 5.04189 -3.24456 -1.12787
lowerback 2.94843 -0.73641 -0.75522
upperback 2.79845 -1.01197 1.97324
thorax 1.26711 -0.539206 2.46636
lowerneck -13.3748 0.959029 -1.16541
upperneck 25.5909 1.46103 0.585315
head 10.3705 0.617533 0.590621
rclavicle 1.12313e-014 -6.36111e-015
rhumerus -33.4914 -26.6433 -71.2478
rradius 18.0553
rwrist 47.1272
rhand -22.9368 -27.7477
rfingers 7.12502
rthumb 3.50412 -57.6986
lclavicle 1.12313e-014 -6.36111e-015
lhumerus -13.6466 -7.94496 89.8688
lradius 25.1638
lwrist 14.8089
lhand -30.5393 -8.86388
lfingers 7.12502
lthumb -3.83823 21.0813
rfemur -22.1902 1.11659 19.8841
rtibia 28.3915
rfoot -11.25 -0.753818
rtoes 11.1669
lfemur -21.0907 5.00867 -18.9155
ltibia 26.265
lfoot -7.77883 5.17565
ltoes 0.269577
441
root 0.579494 17.5181 4.45388 5.09351 -3.1448 -1.15706
lowerback 2.89186 -0.76757 -0.766933
upperback 2.81218 -1.05427 2.00068
thorax 1.31577 -0.561351 2.50094
lowerneck -13.3701 0.9862 -1.15982
upperneck 25.4372 1.50131 0.57169
head 10.3132 0.636133 0.58877
rclavicle -2.88238e-015 1.55052e-014
rhumerus -33.344 -26.027 -71.8783
rradius 18.2435
rwrist 46.405
rhand -22.8729 -27.6485
rfingers 7.12502
rthumb 3.5658 -57.5984
lclavicle -2.88238e-015 1.55052e-014
lhumerus -13.859 -8.36912 90.0751
lradius 24.9792
lwrist 14.5212
lhand -30.3552 -8.66894
lfingers 7.12502
lthumb -3.66045 21.2794
rfemur -22.0609 1.1175 19.9206
rtibia 28.2391
rfoot -11.274 -0.888766
rtoes 11.0051
lfemur -20.9865 5.00673 -18.8786
ltibia 26.1083
lfoot -7.80351 5.09454
ltoes 0.254867
442
root 0.576413 17.5242 4.4762 5.14443 -3.03948 -1.18196
lowerback 2.84403 -0.797496 -0.77755
upperback 2.82184 -1.09479 2.02347
thorax 1.3552 -0.582436 2.53018
lowerneck -13.3451 1.01109 -1.15193
upperneck 25.2791 1.53619 0.562564
head 10.2506 0.653092 0.587227
rclavicle 1.99779e-014 -3.57812e-015
rhumerus -33.1854 -25.4882 -72.4781
rradius 18.4101
rwrist 45.7459
rhand -22.8096 -27.5304
rfingers 7.12502
rthumb 3.62693 -57.4792
lclavicle 1.99779e-014 -3.57812e-015
lhumerus -14.0714 -8.80871 90.291
lradius 24.7414
lwrist 14.1924
lhand -30.1624 -8.53513
lfingers 7.12502
lthumb -3.47432 21.4163
rfemur -21.937 1.11602 19.9526
rtibia 28.09
rfoot -11.2892 -1.02984
rtoes 10.8334
lfemur -20.8921 5.01813 -18.8487
ltibia 25.9602
lfoot -7.82719 5.00007
ltoes 0.240723
443
root 0.573433 17.53 4.49762 5.19492 -2.92658 -1.20438
lowerback 2.80204 -0.82903 -0.788753
upperback 2.83342 -1.13746 2.04629
thorax 1.39352 -0.604631 2.55982
lowerneck -13.3331 1.03432 -1.14508
upperneck 25.1305 1.56973 0.551412
head 10.1942 0.669037 0.585133
rclavicle 1.40143e-014 -4.77083e-015
rhumerus -32.9988 -25.0017 -73.0569
rradius 18.5601
rwrist 45.144
rhand -22.7349 -27.4125
rfingers 7.12502
rthumb 3.69914 -57.3602
lclavicle 1.40143e-014 -4.77083e-015
lhumerus -14.2734 -9.23771 90.5161
lradius 24.466
lwrist 13.8277
lhand -29.9675 -8.39924
lfingers 7.12502
lthumb -3.28603 21.5552
rfemur -21.8178 1.11287 19.9813
rtibia 27.9425
rfoot -11.2906 -1.17634
rtoes 10.682
lfemur -20.8086 5.03947 -18.8241
ltibia 25.8219
lfoot -7.85346 4.89258
ltoes 0.249262
444
root 0.570725 17.5356 4.51831 5.24359 -2.80432 -1.22928
lowerback 2.76568 -0.86285 -0.793125
upperback 2.84723 -1.18311 2.06999
thorax 1.43107 -0.62822 2.5866
lowerneck -13.3338 1.05565 -1.13825
upperneck 24.9884 1.60144 0.537611
head 10.1427 0.683795 0.582024
rclavicle 1.44119e-014 -1.07344e-014
rhumerus -32.7883 -24.5825 -73.6044
rradius 18.6897
rwrist 44.6189
rhand -22.655 -27.2883
rfingers 7.12502
rthumb 3.77623 -57.2346
lclavicle 1.44119e-014 -1.07344e-014
lhumerus -14.4667 -9.65935 90.7481
lradius 24.1571
lwrist 13.4346
lhand -29.7277 -8.18912
lfingers 7.12502
lthumb -3.05451 21.7688
rfemur -21.7001 1.10366 20.012
rtibia 27.7965
rfoot -11.277 -1.32203
rtoes 10.5644
lfemur -20.7323 5.06542 -18.7994
ltibia 25.6929
lfoot -7.88413 4.77607
ltoes 0.257174
445
root 0.568346 17.541 4.53848 5.29069 -2.67032 -1.2598
lowerback 2.73161 -0.898559 -0.7865
upperback 2.86391 -1.23116 2.09551
thorax 1.47026 -0.652882 2.60904
lowerneck -13.3481 1.07179 -1.12684
upperneck 24.849 1.62677 0.516672
head 10.0952 0.695207 0.574963
rclavicle -1.2921e-015 1.35174e-014
rhumerus -32.5572 -24.2176 -74.1229
rradius 18.8074
rwrist 44.1547
rhand -22.5586 -27.1608
rfingers 7.12502
rthumb 3.8694 -57.1054
lclavicle -1.2921e-015 1.35174e-014
lhumerus -14.6544 -10.0549 90.9881
lradius 23.8184
lwrist 12.9855
lhand -29.4421 -7.93031
lfingers 7.12502
lthumb -2.77864 22.0313
rfemur -21.5807 1.08358 20.0482
rtibia 27.6501
rfoot -11.2465 -1.46079
rtoes 10.5062
lfemur -20.6627 5.09366 -18.771
ltibia 25.5738
lfoot -7.92074 4.65
ltoes 0.271761
446
root 0.566303 17.5463 4.55797 5.33953 -2.52228 -1.29133
lowerback 2.70003 -0.937128 -0.775058
upperback 2.88156 -1.283 2.12284
thorax 1.50921 -0.679376 2.63067
lowerneck -13.3765 1.08234 -1.11543
upperneck 24.7102 1.64574 0.490577
head 10.0509 0.703096 0.565436
rclavicle 5.86415e-015 1.15295e-014
rhumerus -32.3063 -23.8922 -74.6141
rradius 18.9148
rwrist 43.7307
rhand -22.4422 -27.0251
rfingers 7.12502
rthumb 3.9818 -56.9677
lclavicle 5.86415e-015 1.15295e-014
lhumerus -14.8311 -10.4104 91.2339
lradius 23.4494
lwrist 12.4756
lhand -29.1007 -7.63146
lfingers 7.12502
lthumb -2.44899 22.3342
rfemur -21.4649 1.0506 20.0845
rtibia 27.5045
rfoot -11.2001 -1.59192
rtoes 10.5211
lfemur -20.6041 5.11584 -18.744
ltibia 25.4648
lfoot -7.96179 4.52146
ltoes 0.269878
447
root 0.564682 17.5514 4.57714 5.39334 -2.36386 -1.32419
lowerback 2.66602 -0.976683 -0.758479
upperback 2.89698 -1.33611 2.15299
thorax 1.5473 -0.706416 2.65224
lowerneck -13.4163 1.08689 -1.10418
upperneck 24.5717 1.65815 0.457879
head 10.009 0.707191 0.552928
rclavicle 2.9122e-014 -4.01545e-014
rhumerus -32.0432 -23.5899 -75.0771
rradius 19.0146
rwrist 43.3298
rhand -22.3172 -26.8806
rfingers 7.12502
rthumb 4.10246 -56.8209
lclavicle 2.9122e-014 -4.01545e-014
lhumerus -14.9963 -10.7419 91.4865
lradius 23.0491
lwrist 11.9278
lhand -28.7182 -7.31556
lfingers 7.12502
lthumb -2.07954 22.6541
rfemur -21.356 1.00061 20.1213
rtibia 27.3625
rfoot -11.1423 -1.70798
rtoes 10.6159
lfemur -20.5586 5.13091 -18.7183
ltibia 25.3665
lfoot -8.0073 4.39394
ltoes 0.251222
448
root 0.563326 17.5562 4.59588 5.45101 -2.1992 -1.3555
lowerback 2.63541 -1.01405 -0.743476
upperback 2.90765 -1.3863 2.18595
thorax 1.57859 -0.731957 2.67761
lowerneck -13.4663 1.08685 -1.09153
upperneck 24.434 1.6658 0.417794
head 9.96974 0.70838 0.537131
rclavicle -4.17448e-015 1.51076e-014
rhumerus -31.7754 -23.3169 -75.5056
rradius 19.1104
rwrist 42.9412
rhand -22.1811 -26.7301
rfingers 7.12502
rthumb 4.23393 -56.6678
lclavicle -4.17448e-015 1.51076e-014
lhumerus -15.1631 -11.0208 91.7499
lradius 22.6261
lwrist 11.3067
lhand -28.3052 -7.00291
lfingers 7.12502
lthumb -1.6807 22.9702
rfemur -21.256 0.941511 20.1558
rtibia 27.2277
rfoot -11.0759 -1.81549
rtoes 10.7799
lfemur -20.5259 5.13841 -18.6955
ltibia 25.2796
lfoot -8.05394 4.27033
ltoes 0.225189
449
root 0.562245 17.5606 4.61417 5.51417 -2.03211 -1.3863
lowerback 2.60693 -1.0473 -0.729165
upperback 2.91323 -1.43098 2.22147
thorax 1.60327 -0.754683 2.706
lowerneck -13.5295 1.08248 -1.07724
upperneck 24.2965 1.66849 0.372448
head 9.93321 0.706835 0.518751
rclavicle 1.28216e-014 -5.1684e-015
rhumerus -31.5082 -23.0648 -75.9016
rradius 19.2075
rwrist 42.5502
rhand -22.0439 -26.5702
rfingers 7.12502
rthumb 4.3664 -56.5052
lclavicle 1.28216e-014 -5.1684e-015
lhumerus -15.3344 -11.2329 92.0205
lradius 22.1917
lwrist 10.6035
lhand -27.878 -6.69934
lfingers 7.12502
lthumb -1.26806 23.2766
rfemur -21.1682 0.874971 20.1892
rtibia 27.1013
rfoot -11.0034 -1.91309
rtoes 11.0042
lfemur -20.5085 5.13535 -18.6741
ltibia 25.2053
lfoot -8.10006 4.15531
ltoes 0.198348
